<svg width="2155" height="1709" viewBox="0 0 2155 1709" fill="none" xmlns="http://www.w3.org/2000/svg">
<path fill-rule="evenodd" clip-rule="evenodd" d="M1016.89 0.0136496C1104.43 8.76401 1152.96 128.921 1152.96 128.921L1268.05 128.921C1358.05 128.921 1431 201.882 1431 291.884V729.037C1431 819.039 1358.05 892 1268.05 892H830.946C740.953 892 668 819.039 668 729.037V291.884C668 201.882 740.953 128.921 830.946 128.921L970.566 128.921C992.025 90.2007 988.192 70.9107 963.257 43.0445C961.714 41.32 962.97 38.606 965.267 38.8827C998.651 42.9035 1025.78 68.3206 1042.81 91.1279C1052.02 57.9041 1041.85 34.7877 1014.84 4.19562C1013.32 2.47423 1014.61 -0.214714 1016.89 0.0136496ZM926.45 556.054C933.344 569.022 937.327 582.648 938.607 595.996C930.817 566.868 903.806 545.381 871.682 545.381C862.082 545.381 852.939 547.3 844.629 550.768C857.337 552.406 867.156 563.267 867.156 576.422C867.156 590.708 855.576 602.289 841.292 602.289C827.007 602.289 815.427 590.708 815.427 576.422C815.427 575.443 815.481 574.477 815.587 573.527C807.35 584.702 802.495 598.436 802.495 613.282C802.495 650.783 833.471 681.183 871.682 681.183C886.758 681.183 900.708 676.451 912.074 668.417C908.258 671.678 904.06 674.555 899.494 676.983C860.207 697.874 808.577 677.605 784.177 631.71C759.776 585.815 771.845 531.673 811.133 510.781C850.42 489.89 902.05 510.159 926.45 556.054ZM1199.52 676.983C1238.81 697.874 1290.44 677.605 1314.84 631.71C1339.24 585.815 1327.17 531.673 1287.89 510.781C1248.6 489.89 1196.97 510.159 1172.57 556.054C1165.69 568.986 1161.71 582.572 1160.42 595.885C1162.4 588.548 1165.59 581.698 1169.78 575.556C1169.78 575.77 1169.77 575.986 1169.77 576.201C1169.77 576.275 1169.77 576.348 1169.77 576.422C1169.77 590.708 1181.35 602.289 1195.63 602.289C1209.92 602.289 1221.5 590.708 1221.5 576.422C1221.5 563.599 1212.17 552.955 1199.93 550.91C1208.33 547.352 1217.59 545.381 1227.32 545.381C1265.53 545.381 1296.51 575.782 1296.51 613.282C1296.51 650.783 1265.53 681.183 1227.32 681.183C1212.29 681.183 1198.38 676.481 1187.04 668.495C1190.83 671.724 1195 674.574 1199.52 676.983ZM806.503 330.123C810.062 326.026 816.182 325.376 820.522 328.634L919.606 403C929.388 410.343 919.489 428.278 907.703 425.01C853.897 410.088 807.521 410.168 748.264 429.721C737.81 433.171 728.405 420.024 735.625 411.713L806.503 330.123ZM1279.3 328.634C1283.64 325.376 1289.76 326.026 1293.32 330.123L1364.2 411.713C1371.42 420.024 1362.01 433.171 1351.56 429.721C1292.3 410.168 1245.93 410.088 1192.12 425.01C1180.33 428.278 1170.43 410.343 1180.22 403L1279.3 328.634ZM965.443 709.637C992.191 697.604 1005.11 677.093 1015.82 660.089C1025.82 644.21 1033.89 631.389 1049.5 631.389C1065.08 631.389 1073.01 644.007 1082.89 659.759C1093.52 676.69 1106.43 697.242 1133.56 709.637C1158.64 721.095 1192.32 710.16 1229.14 698.208C1269.2 685.202 1312.97 670.991 1353.41 683.123C1431 706.404 1088.29 853.846 1049.5 853.846C1010.71 853.846 668.005 706.404 745.596 683.123C786.23 670.932 830.412 685.163 870.712 698.144C907.364 709.95 940.805 720.721 965.443 709.637Z" fill="#FF8A00"/>
<path d="M387.594 1602.56V1701H84.8594V1602.56H387.594ZM128.219 1132.25V1701H0.875V1132.25H128.219ZM348.531 1361.16V1456.47H84.8594V1361.16H348.531ZM387.984 1132.25V1231.08H84.8594V1132.25H387.984Z" fill="black"/>
<path d="M682.125 1606.47V1101H804.781V1701H694.625L682.125 1606.47ZM418.844 1494.75V1486.55C418.844 1454.52 422.359 1425.35 429.391 1399.05C436.682 1372.48 447.229 1349.7 461.031 1330.69C475.094 1311.42 492.411 1296.57 512.984 1286.16C533.557 1275.74 557.125 1270.53 583.688 1270.53C608.167 1270.53 629.521 1276 647.75 1286.94C665.979 1297.61 681.474 1312.72 694.234 1332.25C707.255 1351.52 717.802 1374.31 725.875 1400.61C733.948 1426.65 740.068 1454.91 744.234 1485.38V1499.44C740.328 1528.6 734.208 1555.82 725.875 1581.08C717.802 1606.34 707.255 1628.6 694.234 1647.88C681.474 1666.89 665.849 1681.86 647.359 1692.8C629.13 1703.47 607.646 1708.81 582.906 1708.81C556.344 1708.81 532.776 1703.47 512.203 1692.8C491.891 1682.12 474.833 1667.15 461.031 1647.88C447.229 1628.6 436.682 1605.95 429.391 1579.91C422.359 1553.86 418.844 1525.48 418.844 1494.75ZM540.719 1486.55V1494.75C540.719 1511.42 541.891 1526.91 544.234 1541.23C546.839 1555.56 551.005 1568.19 556.734 1579.12C562.464 1590.06 570.016 1598.66 579.391 1604.91C588.766 1610.9 600.224 1613.89 613.766 1613.89C631.995 1613.89 646.969 1609.72 658.688 1601.39C670.406 1592.8 679.26 1580.95 685.25 1565.84C691.24 1550.74 694.365 1533.16 694.625 1513.11V1472.09C694.625 1455.43 692.932 1440.45 689.547 1427.17C686.161 1413.89 681.083 1402.69 674.312 1393.58C667.802 1384.46 659.599 1377.56 649.703 1372.88C639.807 1367.93 628.089 1365.45 614.547 1365.45C601.266 1365.45 589.938 1368.58 580.562 1374.83C571.188 1380.82 563.505 1389.28 557.516 1400.22C551.786 1411.16 547.49 1424.05 544.625 1438.89C542.021 1453.47 540.719 1469.36 540.719 1486.55Z" fill="black"/>
<path d="M1134.08 1599.05V1278.34H1256.73V1701H1141.89L1134.08 1599.05ZM1146.97 1512.72L1180.56 1511.94C1180.56 1540.32 1177.18 1566.49 1170.41 1590.45C1163.9 1614.41 1154 1635.24 1140.72 1652.95C1127.7 1670.66 1111.42 1684.46 1091.89 1694.36C1072.62 1703.99 1050.09 1708.81 1024.31 1708.81C1003.48 1708.81 984.339 1705.95 966.891 1700.22C949.703 1694.23 934.859 1684.98 922.359 1672.48C909.859 1659.72 900.224 1643.45 893.453 1623.66C886.682 1603.6 883.297 1579.65 883.297 1551.78V1278.34H1005.17V1552.56C1005.17 1563.5 1006.47 1572.88 1009.08 1580.69C1011.94 1588.24 1015.72 1594.49 1020.41 1599.44C1025.35 1604.39 1031.34 1608.03 1038.38 1610.38C1045.67 1612.72 1053.61 1613.89 1062.2 1613.89C1083.82 1613.89 1100.74 1609.46 1112.98 1600.61C1125.48 1591.49 1134.21 1579.39 1139.16 1564.28C1144.36 1548.92 1146.97 1531.73 1146.97 1512.72Z" fill="black"/>
<path d="M1512.59 1613.89C1525.61 1613.89 1536.94 1611.42 1546.58 1606.47C1556.21 1601.52 1563.64 1594.62 1568.84 1585.77C1574.31 1576.65 1577.05 1565.71 1577.05 1552.95H1691.89C1691.89 1583.68 1683.95 1610.77 1668.06 1634.2C1652.44 1657.64 1631.34 1676 1604.78 1689.28C1578.22 1702.3 1548.27 1708.81 1514.94 1708.81C1482.12 1708.81 1453.48 1703.47 1429 1692.8C1404.52 1681.86 1384.08 1666.62 1367.67 1647.09C1351.27 1627.56 1338.9 1604.91 1330.56 1579.12C1322.49 1553.08 1318.45 1524.96 1318.45 1494.75V1484.59C1318.45 1454.65 1322.49 1426.65 1330.56 1400.61C1338.9 1374.57 1351.27 1351.78 1367.67 1332.25C1384.08 1312.72 1404.39 1297.61 1428.61 1286.94C1453.09 1276 1481.73 1270.53 1514.55 1270.53C1549.18 1270.53 1579.78 1277.17 1606.34 1290.45C1633.17 1303.73 1654.13 1322.88 1669.23 1347.88C1684.34 1372.61 1691.89 1402.43 1691.89 1437.33H1577.05C1577.05 1423.79 1574.57 1411.68 1569.62 1401C1564.94 1390.06 1557.65 1381.47 1547.75 1375.22C1538.11 1368.71 1526.14 1365.45 1511.81 1365.45C1496.97 1365.45 1484.73 1368.71 1475.09 1375.22C1465.72 1381.47 1458.56 1390.19 1453.61 1401.39C1448.66 1412.59 1445.28 1425.35 1443.45 1439.67C1441.63 1453.73 1440.72 1468.71 1440.72 1484.59V1494.75C1440.72 1510.9 1441.63 1526.26 1443.45 1540.84C1445.28 1555.17 1448.66 1567.8 1453.61 1578.73C1458.82 1589.67 1466.11 1598.27 1475.48 1604.52C1484.86 1610.77 1497.23 1613.89 1512.59 1613.89Z" fill="black"/>
<path d="M1875.09 1100.61V1701H1752.83V1100.61H1875.09ZM2143.45 1278.34L1959.47 1490.84L1862.2 1588.5L1813.38 1506.08L1892.28 1404.12L1996.58 1278.34H2143.45ZM2014.55 1701L1895.41 1506.86L1982.91 1438.5L2154.39 1701H2014.55Z" fill="black"/>
</svg>
