<svg width="2582" height="892" viewBox="0 0 2582 892" fill="none" xmlns="http://www.w3.org/2000/svg">
<path d="M16 308H735V721C735 798.32 672.32 861 595 861H156C78.6802 861 16 798.32 16 721V308Z" fill="white"/>
<path fill-rule="evenodd" clip-rule="evenodd" d="M348.891 0.0136496C436.426 8.76401 484.956 128.921 484.956 128.921L600.054 128.921C690.047 128.921 763 201.882 763 291.884V729.037C763 819.039 690.047 892 600.054 892H162.946C72.9533 892 0 819.039 0 729.037V291.884C0 201.882 72.9533 128.921 162.946 128.921L302.566 128.921C324.025 90.2007 320.192 70.9107 295.257 43.0445C293.714 41.32 294.97 38.606 297.267 38.8827C330.651 42.9035 357.784 68.3206 374.808 91.1279C384.016 57.9041 373.845 34.7877 346.844 4.19562C345.324 2.47423 346.606 -0.214714 348.891 0.0136496ZM258.45 556.054C265.344 569.022 269.327 582.648 270.607 595.996C262.817 566.868 235.806 545.381 203.682 545.381C194.082 545.381 184.939 547.3 176.629 550.768C189.337 552.406 199.156 563.267 199.156 576.422C199.156 590.708 187.576 602.289 173.292 602.289C159.007 602.289 147.427 590.708 147.427 576.422C147.427 575.443 147.481 574.477 147.587 573.527C139.35 584.702 134.495 598.436 134.495 613.282C134.495 650.783 165.471 681.183 203.682 681.183C218.758 681.183 232.708 676.451 244.074 668.417C240.258 671.678 236.06 674.555 231.494 676.983C192.207 697.874 140.577 677.605 116.177 631.71C91.7764 585.815 103.845 531.673 143.133 510.781C182.42 489.89 234.05 510.159 258.45 556.054ZM531.525 676.983C570.812 697.874 622.442 677.605 646.842 631.71C671.243 585.815 659.174 531.673 619.886 510.781C580.599 489.89 528.969 510.159 504.569 556.054C497.694 568.986 493.714 582.572 492.422 595.885C494.398 588.548 497.594 581.698 501.784 575.556C501.777 575.77 501.772 575.986 501.77 576.201C501.77 576.275 501.769 576.348 501.769 576.422C501.769 590.708 513.349 602.289 527.634 602.289C541.918 602.289 553.498 590.708 553.498 576.422C553.498 563.599 544.169 552.955 531.928 550.91C540.328 547.352 549.588 545.381 559.318 545.381C597.529 545.381 628.505 575.782 628.505 613.282C628.505 650.783 597.529 681.183 559.318 681.183C544.29 681.183 530.381 676.481 519.036 668.495C522.827 671.724 526.995 674.574 531.525 676.983ZM138.502 330.123C142.062 326.026 148.182 325.376 152.522 328.634L251.606 403C261.388 410.343 251.489 428.278 239.703 425.01C185.897 410.088 139.521 410.168 80.2645 429.721C69.8099 433.171 60.4047 420.024 67.6249 411.713L138.502 330.123ZM611.301 328.634C615.642 325.376 621.762 326.026 625.321 330.123L696.198 411.713C703.419 420.024 694.014 433.171 683.559 429.721C624.303 410.168 577.927 410.088 524.121 425.01C512.334 428.278 502.435 410.343 512.218 403L611.301 328.634ZM297.443 709.637C324.191 697.604 337.108 677.093 347.816 660.089C357.816 644.21 365.89 631.389 381.502 631.389C397.084 631.389 405.005 644.007 414.895 659.759C425.524 676.69 438.427 697.242 465.56 709.637C490.641 721.095 524.323 710.16 561.138 698.208C601.2 685.202 644.972 670.991 685.408 683.123C763.002 706.404 420.295 853.846 381.5 853.846C342.706 853.846 0.00479889 706.404 77.5958 683.123C118.23 670.932 162.412 685.163 202.712 698.144C239.364 709.95 272.805 720.721 297.443 709.637Z" fill="#FF8A00"/>
<path d="M1256.2 641.172V715H1029.14V641.172H1256.2ZM1061.66 288.438V715H966.156V288.438H1061.66ZM1226.9 460.117V531.602H1029.14V460.117H1226.9ZM1256.49 288.438V362.559H1029.14V288.438H1256.49Z" fill="black"/>
<path d="M1477.09 644.102V265H1569.09V715H1486.47L1477.09 644.102ZM1279.63 560.312V554.16C1279.63 530.137 1282.27 508.262 1287.54 488.535C1293.01 468.613 1300.92 451.523 1311.27 437.266C1321.82 422.812 1334.81 411.68 1350.24 403.867C1365.67 396.055 1383.34 392.148 1403.27 392.148C1421.62 392.148 1437.64 396.25 1451.31 404.453C1464.98 412.461 1476.61 423.789 1486.18 438.438C1495.94 452.891 1503.85 469.98 1509.91 489.707C1515.96 509.238 1520.55 530.43 1523.68 553.281V563.828C1520.75 585.703 1516.16 606.113 1509.91 625.059C1503.85 644.004 1495.94 660.703 1486.18 675.156C1476.61 689.414 1464.89 700.645 1451.02 708.848C1437.35 716.855 1421.23 720.859 1402.68 720.859C1382.76 720.859 1365.08 716.855 1349.65 708.848C1334.42 700.84 1321.62 689.609 1311.27 675.156C1300.92 660.703 1293.01 643.711 1287.54 624.18C1282.27 604.648 1279.63 583.359 1279.63 560.312ZM1371.04 554.16V560.312C1371.04 572.812 1371.92 584.434 1373.68 595.176C1375.63 605.918 1378.75 615.391 1383.05 623.594C1387.35 631.797 1393.01 638.242 1400.04 642.93C1407.07 647.422 1415.67 649.668 1425.82 649.668C1439.5 649.668 1450.73 646.543 1459.52 640.293C1468.3 633.848 1474.95 624.961 1479.44 613.633C1483.93 602.305 1486.27 589.121 1486.47 574.082V543.32C1486.47 530.82 1485.2 519.59 1482.66 509.629C1480.12 499.668 1476.31 491.27 1471.23 484.434C1466.35 477.598 1460.2 472.422 1452.78 468.906C1445.36 465.195 1436.57 463.34 1426.41 463.34C1416.45 463.34 1407.95 465.684 1400.92 470.371C1393.89 474.863 1388.13 481.211 1383.64 489.414C1379.34 497.617 1376.12 507.285 1373.97 518.418C1372.02 529.355 1371.04 541.27 1371.04 554.16Z" fill="black"/>
<path d="M1816.06 638.535V398.008H1908.05V715H1821.92L1816.06 638.535ZM1825.73 573.789L1850.92 573.203C1850.92 594.492 1848.38 614.121 1843.3 632.09C1838.42 650.059 1831 665.684 1821.04 678.965C1811.27 692.246 1799.07 702.598 1784.42 710.02C1769.96 717.246 1753.07 720.859 1733.73 720.859C1718.11 720.859 1703.75 718.711 1690.67 714.414C1677.78 709.922 1666.64 702.988 1657.27 693.613C1647.89 684.043 1640.67 671.836 1635.59 656.992C1630.51 641.953 1627.97 623.984 1627.97 603.086V398.008H1719.38V603.672C1719.38 611.875 1720.36 618.906 1722.31 624.766C1724.46 630.43 1727.29 635.117 1730.8 638.828C1734.52 642.539 1739.01 645.273 1744.28 647.031C1749.75 648.789 1755.71 649.668 1762.15 649.668C1778.36 649.668 1791.06 646.348 1800.24 639.707C1809.61 632.871 1816.16 623.789 1819.87 612.461C1823.77 600.938 1825.73 588.047 1825.73 573.789Z" fill="black"/>
<path d="M2099.95 649.668C2109.71 649.668 2118.21 647.812 2125.43 644.102C2132.66 640.391 2138.23 635.215 2142.13 628.574C2146.23 621.738 2148.29 613.535 2148.29 603.965H2234.42C2234.42 627.012 2228.46 647.324 2216.55 664.902C2204.83 682.48 2189.01 696.25 2169.09 706.211C2149.16 715.977 2126.7 720.859 2101.7 720.859C2077.09 720.859 2055.61 716.855 2037.25 708.848C2018.89 700.645 2003.56 689.219 1991.25 674.57C1978.95 659.922 1969.67 642.93 1963.42 623.594C1957.37 604.062 1954.34 582.969 1954.34 560.312V552.695C1954.34 530.234 1957.37 509.238 1963.42 489.707C1969.67 470.176 1978.95 453.086 1991.25 438.438C2003.56 423.789 2018.79 412.461 2036.96 404.453C2055.32 396.25 2076.8 392.148 2101.41 392.148C2127.39 392.148 2150.34 397.129 2170.26 407.09C2190.38 417.051 2206.1 431.406 2217.43 450.156C2228.75 468.711 2234.42 491.074 2234.42 517.246H2148.29C2148.29 507.09 2146.43 498.008 2142.72 490C2139.2 481.797 2133.73 475.352 2126.31 470.664C2119.09 465.781 2110.1 463.34 2099.36 463.34C2088.23 463.34 2079.05 465.781 2071.82 470.664C2064.79 475.352 2059.42 481.895 2055.71 490.293C2052 498.691 2049.46 508.262 2048.09 519.004C2046.72 529.551 2046.04 540.781 2046.04 552.695V560.312C2046.04 572.422 2046.72 583.945 2048.09 594.883C2049.46 605.625 2052 615.098 2055.71 623.301C2059.61 631.504 2065.08 637.949 2072.11 642.637C2079.14 647.324 2088.42 649.668 2099.95 649.668Z" fill="black"/>
<path d="M2371.82 264.707V715H2280.12V264.707H2371.82ZM2573.09 398.008L2435.1 557.383L2362.15 630.625L2325.53 568.809L2384.71 492.344L2462.93 398.008H2573.09ZM2476.41 715L2387.05 569.395L2452.68 518.125L2581.29 715H2476.41Z" fill="black"/>
</svg>
