<svg width="526" height="680" viewBox="0 0 526 680" fill="none" xmlns="http://www.w3.org/2000/svg">
<path fill-rule="evenodd" clip-rule="evenodd" d="M253.389 0.00205285C266.519 1.31808 273.798 19.3894 273.798 19.3894L291.061 19.3894C304.559 19.3894 315.501 30.3624 315.501 43.8984V109.645C315.501 123.181 304.559 134.154 291.061 134.154H225.5C212.002 134.154 201.06 123.181 201.06 109.645V43.8984C201.06 30.3624 212.002 19.3894 225.5 19.3894L246.441 19.3894C249.66 13.5659 249.085 10.6647 245.345 6.47375C245.114 6.2144 245.302 5.80621 245.647 5.84783C250.654 6.45255 254.723 10.2752 257.277 13.7053C258.658 8.70859 257.132 5.23196 253.082 0.631008C252.855 0.372116 253.047 -0.0322923 253.389 0.00205285ZM239.825 83.6288C240.859 85.5791 241.456 87.6283 241.648 89.6359C240.48 85.2551 236.428 82.0236 231.61 82.0236C230.17 82.0236 228.799 82.3122 227.552 82.8338C229.458 83.08 230.931 84.7136 230.931 86.692C230.931 88.8406 229.194 90.5823 227.052 90.5823C224.909 90.5823 223.172 88.8406 223.172 86.692C223.172 86.5448 223.181 86.3996 223.197 86.2566C221.961 87.9373 221.233 90.0028 221.233 92.2357C221.233 97.8757 225.879 102.448 231.61 102.448C233.871 102.448 235.964 101.736 237.668 100.528C237.096 101.018 236.466 101.451 235.781 101.816C229.889 104.958 222.145 101.91 218.485 95.0072C214.826 88.1047 216.636 79.962 222.528 76.8199C228.421 73.6778 236.165 76.7263 239.825 83.6288ZM280.782 101.816C286.675 104.958 294.419 101.91 298.078 95.0072C301.738 88.1047 299.928 79.962 294.035 76.8199C288.143 73.6778 280.399 76.7263 276.739 83.6288C275.708 85.5736 275.111 87.617 274.917 89.6192C275.214 88.5158 275.693 87.4855 276.321 86.5618C276.32 86.5941 276.32 86.6264 276.319 86.6589C276.319 86.6699 276.319 86.681 276.319 86.692C276.319 88.8406 278.056 90.5823 280.199 90.5823C282.341 90.5823 284.078 88.8406 284.078 86.692C284.078 84.7635 282.679 83.1627 280.843 82.8551C282.103 82.32 283.492 82.0236 284.951 82.0236C290.682 82.0236 295.328 86.5957 295.328 92.2357C295.328 97.8757 290.682 102.448 284.951 102.448C282.697 102.448 280.611 101.741 278.909 100.539C279.478 101.025 280.103 101.454 280.782 101.816ZM221.834 49.6495C222.368 49.0333 223.286 48.9355 223.937 49.4255L238.798 60.61C240.265 61.7142 238.78 64.4117 237.013 63.9201C228.942 61.6759 221.987 61.688 213.099 64.6287C211.531 65.1475 210.12 63.1703 211.203 61.9203L221.834 49.6495ZM292.748 49.4255C293.399 48.9355 294.317 49.0333 294.85 49.6495L305.481 61.9203C306.564 63.1703 305.153 65.1475 303.585 64.6287C294.698 61.688 287.742 61.6759 279.672 63.9201C277.904 64.4117 276.419 61.7142 277.886 60.61L292.748 49.4255ZM245.673 106.727C249.685 104.917 251.622 101.833 253.228 99.2753C254.728 96.8871 255.939 94.9589 258.281 94.9589C260.618 94.959 261.806 96.8566 263.289 99.2256C264.884 101.772 266.819 104.863 270.888 106.727C274.65 108.45 279.702 106.806 285.224 105.008C291.233 103.052 297.798 100.915 303.863 102.74C315.501 106.241 264.099 128.416 258.28 128.416C252.462 128.416 201.061 106.241 212.699 102.74C218.793 100.906 225.42 103.046 231.464 104.999C236.962 106.774 241.978 108.394 245.673 106.727Z" fill="#FF8A00"/>
<path d="M159.003 241.02V255.825H113.597V241.02H159.003ZM120.1 170.287V255.825H101V170.287H120.1ZM153.144 204.714V219.048H113.597V204.714H153.144ZM159.061 170.287V185.15H113.597V170.287H159.061Z" fill="black"/>
<path d="M203.179 241.608V165.587H221.576V255.825H205.054L203.179 241.608ZM163.69 224.806V223.572C163.69 218.755 164.217 214.368 165.272 210.412C166.366 206.417 167.947 202.99 170.018 200.131C172.127 197.233 174.724 195 177.81 193.434C180.896 191.867 184.43 191.084 188.414 191.084C192.086 191.084 195.289 191.906 198.023 193.551C200.757 195.157 203.081 197.429 204.995 200.366C206.948 203.264 208.53 206.691 209.741 210.647C210.952 214.564 211.87 218.813 212.494 223.396V225.511C211.909 229.897 210.991 233.99 209.741 237.789C208.53 241.588 206.948 244.937 204.995 247.835C203.081 250.694 200.738 252.946 197.964 254.591C195.23 256.197 192.008 257 188.297 257C184.313 257 180.778 256.197 177.693 254.591C174.646 252.985 172.088 250.733 170.018 247.835C167.947 244.937 166.366 241.529 165.272 237.613C164.217 233.696 163.69 229.427 163.69 224.806ZM181.97 223.572V224.806C181.97 227.312 182.145 229.643 182.497 231.797C182.888 233.951 183.513 235.85 184.372 237.495C185.231 239.14 186.364 240.433 187.77 241.373C189.176 242.274 190.895 242.724 192.926 242.724C195.66 242.724 197.906 242.097 199.664 240.844C201.421 239.552 202.749 237.77 203.648 235.498C204.546 233.226 205.015 230.583 205.054 227.567V221.398C205.054 218.892 204.8 216.64 204.292 214.642C203.784 212.645 203.023 210.961 202.007 209.59C201.031 208.219 199.8 207.181 198.316 206.476C196.832 205.732 195.074 205.36 193.043 205.36C191.051 205.36 189.352 205.83 187.946 206.77C186.54 207.671 185.387 208.944 184.489 210.588C183.63 212.233 182.985 214.172 182.556 216.405C182.165 218.598 181.97 220.987 181.97 223.572Z" fill="black"/>
<path d="M270.966 240.492V192.259H289.363V255.825H272.138L270.966 240.492ZM272.9 227.508L277.938 227.391C277.938 231.66 277.43 235.596 276.415 239.199C275.438 242.802 273.954 245.936 271.962 248.599C270.009 251.262 267.568 253.338 264.638 254.826C261.748 256.275 258.369 257 254.503 257C251.378 257 248.507 256.569 245.89 255.708C243.312 254.807 241.086 253.416 239.211 251.536C237.336 249.617 235.891 247.169 234.875 244.193C233.86 241.177 233.352 237.574 233.352 233.383V192.259H251.632V233.5C251.632 235.145 251.827 236.555 252.218 237.73C252.647 238.866 253.214 239.806 253.917 240.55C254.659 241.294 255.557 241.843 256.612 242.195C257.705 242.548 258.897 242.724 260.186 242.724C263.428 242.724 265.967 242.058 267.802 240.727C269.677 239.356 270.986 237.535 271.728 235.263C272.509 232.952 272.9 230.367 272.9 227.508Z" fill="black"/>
<path d="M327.739 242.724C329.692 242.724 331.391 242.352 332.836 241.608C334.281 240.864 335.394 239.826 336.175 238.494C336.996 237.123 337.406 235.478 337.406 233.559H354.631C354.631 238.181 353.44 242.254 351.057 245.779C348.713 249.304 345.55 252.065 341.566 254.063C337.582 256.021 333.09 257 328.09 257C323.169 257 318.872 256.197 315.201 254.591C311.529 252.946 308.463 250.655 306.002 247.718C303.541 244.78 301.686 241.373 300.436 237.495C299.225 233.579 298.62 229.349 298.62 224.806V223.278C298.62 218.774 299.225 214.564 300.436 210.647C301.686 206.731 303.541 203.304 306.002 200.366C308.463 197.429 311.51 195.157 315.142 193.551C318.814 191.906 323.11 191.084 328.032 191.084C333.226 191.084 337.816 192.083 341.8 194.08C345.823 196.078 348.967 198.956 351.233 202.716C353.498 206.437 354.631 210.921 354.631 216.17H337.406C337.406 214.133 337.035 212.312 336.293 210.706C335.59 209.061 334.496 207.769 333.012 206.829C331.566 205.849 329.77 205.36 327.621 205.36C325.395 205.36 323.559 205.849 322.114 206.829C320.708 207.769 319.634 209.081 318.892 210.765C318.15 212.449 317.642 214.368 317.368 216.522C317.095 218.637 316.958 220.889 316.958 223.278V224.806C316.958 227.234 317.095 229.545 317.368 231.738C317.642 233.892 318.15 235.792 318.892 237.437C319.673 239.082 320.767 240.374 322.173 241.314C323.579 242.254 325.434 242.724 327.739 242.724Z" fill="black"/>
<path d="M382.109 165.528V255.825H363.771V165.528H382.109ZM422.36 192.259L394.764 224.218L380.176 238.905L372.852 226.509L384.687 211.176L400.33 192.259H422.36ZM403.025 255.825L385.156 226.627L398.28 216.346L424 255.825H403.025Z" fill="black"/>
<g clip-path="url(#clip0_24_679)">
<path d="M13.9275 679.168C13.9275 679.63 14.2984 680 14.7603 680H525.167C525.629 680 526 679.63 526 679.168C526 678.707 525.629 678.337 525.167 678.337H14.7603C14.2984 678.337 13.9275 678.707 13.9275 679.168Z" fill="#3F3D58"/>
<path d="M177.368 369.5H13.6684C7.42553 369.5 2.34448 364.426 2.34448 358.192C2.34448 351.958 7.42553 346.884 13.6684 346.884H177.368C183.61 346.884 188.691 351.958 188.691 358.192C188.691 364.426 183.61 369.5 177.368 369.5ZM13.6684 348.282C8.19538 348.282 3.74422 352.727 3.74422 358.192C3.74422 363.657 8.19538 368.102 13.6684 368.102H177.368C182.84 368.102 187.292 363.657 187.292 358.192C187.292 352.727 182.84 348.282 177.368 348.282H13.6684Z" fill="#E2E3E4"/>
<path d="M177.368 501.837H13.6685C7.61465 501.837 2.69458 496.923 2.69458 490.878C2.69458 484.833 7.61465 479.919 13.6685 479.919H177.368C183.422 479.919 188.342 484.833 188.342 490.878C188.342 496.923 183.422 501.837 177.368 501.837Z" fill="#FF8A00"/>
<path d="M123.723 324.917H10.9739C4.92007 324.917 0 320.004 0 313.959C0 307.913 4.92007 303 10.9739 303H123.723C129.777 303 134.697 307.913 134.697 313.959C134.697 320.004 129.777 324.917 123.723 324.917Z" fill="#E2E3E4"/>
<path d="M177.368 413.727H13.6684C7.42553 413.727 2.34448 408.653 2.34448 402.418C2.34448 396.184 7.42553 391.11 13.6684 391.11H177.368C183.61 391.11 188.691 396.184 188.691 402.418C188.691 408.653 183.61 413.727 177.368 413.727ZM13.6684 392.508C8.19538 392.508 3.74422 396.953 3.74422 402.418C3.74422 407.884 8.19538 412.329 13.6684 412.329H177.368C182.84 412.329 187.292 407.884 187.292 402.418C187.292 396.953 182.84 392.508 177.368 392.508H13.6684Z" fill="#E2E3E4"/>
<path d="M177.368 457.96H13.6684C7.42553 457.96 2.34448 452.886 2.34448 446.652C2.34448 440.417 7.42553 435.343 13.6684 435.343H177.368C183.61 435.343 188.691 440.417 188.691 446.652C188.691 452.886 183.61 457.96 177.368 457.96ZM13.6684 436.741C8.19538 436.741 3.74422 441.186 3.74422 446.652C3.74422 452.117 8.19538 456.562 13.6684 456.562H177.368C182.84 456.562 187.292 452.117 187.292 446.652C187.292 441.186 182.84 436.741 177.368 436.741H13.6684Z" fill="#E2E3E4"/>
<path d="M8.04142 338.763H50.9433C51.9652 338.763 52.798 339.587 52.798 340.615C52.798 341.635 51.9652 342.467 50.9433 342.467H8.04142C7.01961 342.467 6.18677 341.642 6.18677 340.615C6.18677 339.594 7.01961 338.763 8.04142 338.763Z" fill="#E2E3E4"/>
<path d="M8.04142 384.037H50.9433C51.9652 384.037 52.798 384.862 52.798 385.882C52.798 386.903 51.9652 387.734 50.9433 387.734H8.04142C7.01961 387.734 6.18677 386.91 6.18677 385.889C6.18677 384.869 7.01961 384.037 8.04142 384.037Z" fill="#E2E3E4"/>
<path d="M8.04142 429.319H50.9433C51.9652 429.319 52.798 430.144 52.798 431.171C52.798 432.191 51.9652 433.016 50.9433 433.016H8.04142C7.01961 433.016 6.18677 432.191 6.18677 431.164C6.18677 430.144 7.01961 429.319 8.04142 429.319Z" fill="#E2E3E4"/>
<path d="M312.897 395.436L297.248 400.58V378.083H311.448L312.897 395.436Z" fill="#9F616A"/>
<path d="M299.187 384.31C307.799 384.31 314.78 377.338 314.78 368.738C314.78 360.139 307.799 353.167 299.187 353.167C290.575 353.167 283.594 360.139 283.594 368.738C283.594 377.338 290.575 384.31 299.187 384.31Z" fill="#9F616A"/>
<path d="M303.47 367.194C300.86 367.117 299.145 364.482 298.13 362.078C297.115 359.674 296.072 356.913 293.651 355.921C291.67 355.11 288.178 360.596 286.617 359.136C284.987 357.612 286.575 349.791 288.304 348.386C290.033 346.982 292.398 346.709 294.624 346.604C300.055 346.353 305.521 346.793 310.847 347.904C314.143 348.589 317.53 349.624 319.91 352C322.919 355.019 323.689 359.569 323.906 363.825C324.13 368.179 323.878 372.736 321.758 376.545C319.637 380.354 315.2 383.164 310.945 382.192C310.518 379.886 310.952 377.517 311.12 375.168C311.281 372.827 311.113 370.297 309.678 368.431C308.25 366.565 305.185 365.824 303.519 367.48" fill="#2F2E43"/>
<path d="M322.653 372.589C324.214 371.45 326.083 370.493 328 370.73C330.072 370.982 331.829 372.687 332.361 374.707C332.892 376.727 332.298 378.949 331.01 380.599C329.729 382.248 327.818 383.338 325.803 383.884C324.634 384.198 323.353 384.331 322.24 383.856C320.603 383.15 319.714 381.06 320.358 379.397" fill="#2F2E43"/>
<path d="M262.983 519.1C261.94 524.215 263.85 528.891 267.238 529.541C270.625 530.191 274.216 526.564 275.251 521.448C275.692 519.407 275.622 517.296 275.048 515.284L287.947 435.085L271.815 432.052L265.586 513.473C264.263 515.123 263.375 517.052 262.983 519.106V519.1Z" fill="#9F616A"/>
<path d="M297.08 390.258H286.071C278.289 391.439 276.175 395.583 274.404 403.243C271.703 414.929 268.253 430.486 268.938 430.717C270.037 431.08 288.78 439.886 298.333 437.873L297.08 390.258Z" fill="#FF8A00"/>
<path d="M307.725 645.712H293.07V666.476H307.725V645.712Z" fill="#9F616A"/>
<path d="M278.8 679.043C277.26 679.043 275.888 679.008 274.852 678.91C270.961 678.553 267.245 675.681 265.376 674.003C264.536 673.249 264.27 672.047 264.704 671.012C265.019 670.271 265.642 669.712 266.419 669.496L276.707 666.56L293.364 655.336L293.553 655.671C293.623 655.797 295.26 658.74 295.806 660.724C296.016 661.479 295.96 662.108 295.645 662.597C295.428 662.933 295.12 663.129 294.876 663.24C295.176 663.555 296.121 664.198 299.033 664.659C303.281 665.33 304.177 660.934 304.212 660.752L304.24 660.606L304.366 660.522C306.388 659.222 307.634 658.628 308.061 658.753C308.327 658.83 308.775 658.97 309.986 670.942C310.105 671.32 310.952 674.073 310.378 676.708C309.755 679.574 297.213 678.588 294.701 678.365C294.631 678.372 285.238 679.043 278.807 679.043H278.8Z" fill="#2F2E43"/>
<path d="M349.456 629.398L337.021 637.143L348.024 654.761L360.459 647.017L349.456 629.398Z" fill="#9F616A"/>
<path d="M332.941 676.198C331.22 676.198 329.638 675.988 328.511 675.793C327.405 675.597 326.538 674.716 326.356 673.612C326.23 672.815 326.461 672.012 327.006 671.418L334.18 663.492L342.369 645.167L342.705 645.349C342.831 645.418 345.777 647.047 347.296 648.445C347.877 648.976 348.164 649.542 348.15 650.122C348.143 650.527 347.989 650.849 347.835 651.08C348.254 651.191 349.395 651.233 352.111 650.087C356.072 648.417 354.504 644.209 354.434 644.035L354.378 643.895L354.441 643.762C355.47 641.589 356.205 640.428 356.639 640.31C356.912 640.233 357.36 640.114 364.729 649.64C365.03 649.891 367.207 651.785 368.117 654.322C369.104 657.083 357.941 662.877 355.694 664.009C355.624 664.065 343.943 672.543 339.142 674.954C337.239 675.911 334.985 676.205 332.934 676.205L332.941 676.198Z" fill="#2F2E43"/>
<path d="M318.517 472.071H277.484L273.76 510.189L290.053 651.031H311L302.623 569.686L336.602 643.126L355.218 630.113L328.686 561.551C328.686 561.551 338.162 501.823 330.716 486.943C323.269 472.071 318.517 472.071 318.517 472.071Z" fill="#2F2E43"/>
<path d="M338.932 474.391H273.76L293.315 390.258H321.708L338.932 474.391Z" fill="#FF8A00"/>
<path d="M344.797 519.1C345.84 524.215 343.929 528.891 340.542 529.541C337.155 530.191 333.564 526.564 332.529 521.448C332.088 519.407 332.158 517.296 332.732 515.284L319.833 435.085L335.965 432.052L342.194 513.473C343.517 515.123 344.405 517.052 344.797 519.106V519.1Z" fill="#9F616A"/>
<path d="M310.7 390.258H321.708C329.491 391.439 331.605 395.583 333.375 403.243C336.077 414.929 339.527 430.486 338.841 430.717C337.742 431.08 319 439.886 309.447 437.873L310.7 390.258Z" fill="#FF8A00"/>
</g>
<defs>
<clipPath id="clip0_24_679">
<rect width="526" height="377" fill="white" transform="translate(0 303)"/>
</clipPath>
</defs>
</svg>
