<svg width="3074" height="1080" viewBox="0 0 3074 1080" fill="none" xmlns="http://www.w3.org/2000/svg">
<g clip-path="url(#clip0_447_21)">
<rect width="3074" height="1080" fill="black"/>
<rect x="191" y="21" width="866" height="941" fill="white"/>
<path fill-rule="evenodd" clip-rule="evenodd" d="M-55 -160H1335V1230H-55V-160ZM736.526 161.759C736.526 161.759 688.229 42.1887 601.112 33.4811C598.838 33.2538 597.562 35.9296 599.074 37.6426C625.947 68.0853 636.069 91.0888 626.905 124.15C609.962 101.454 582.959 76.1615 549.735 72.1603C547.449 71.8849 546.198 74.5857 547.734 76.3017C572.55 104.032 576.364 123.228 555.008 161.759L416.056 161.759C326.493 161.759 253.889 234.364 253.889 323.926V758.944C253.889 848.507 326.493 921.111 416.056 921.111H851.074C940.636 921.111 1013.24 848.507 1013.24 758.944V323.926C1013.24 234.364 940.636 161.759 851.074 161.759L736.526 161.759ZM523.202 626.552C521.928 613.269 517.965 599.71 511.103 586.806C486.82 541.135 435.437 520.964 396.337 541.754C357.237 562.544 345.226 616.421 369.51 662.092C393.794 707.763 445.177 727.934 484.276 707.144C488.82 704.728 492.998 701.865 496.796 698.62C485.485 706.615 471.601 711.324 456.597 711.324C418.569 711.324 387.741 681.072 387.741 643.755C387.741 628.98 392.573 615.314 400.77 604.193C400.665 605.139 400.611 606.1 400.611 607.074C400.611 621.29 412.136 632.815 426.352 632.815C440.568 632.815 452.093 621.29 452.093 607.074C452.093 593.983 442.321 583.175 429.674 581.546C437.944 578.095 447.043 576.185 456.597 576.185C488.568 576.185 515.449 597.567 523.202 626.552ZM897.638 662.092C873.355 707.763 821.972 727.934 782.872 707.144C778.364 704.747 774.217 701.91 770.443 698.697C781.734 706.645 795.577 711.324 810.532 711.324C848.561 711.324 879.389 681.072 879.389 643.755C879.389 606.437 848.561 576.185 810.532 576.185C800.849 576.185 791.633 578.147 783.274 581.687C795.456 583.722 804.741 594.314 804.741 607.074C804.741 621.29 793.216 632.815 779 632.815C764.784 632.815 753.259 621.29 753.259 607.074L753.259 606.964L753.26 606.855C753.261 606.724 753.263 606.594 753.266 606.464C753.268 606.38 753.271 606.296 753.273 606.212C749.104 612.324 745.923 619.141 743.957 626.442C745.242 613.194 749.203 599.674 756.045 586.806C780.329 541.135 831.712 520.964 870.811 541.754C909.911 562.544 921.922 616.421 897.638 662.092ZM405.682 360.496C401.362 357.254 395.271 357.902 391.729 361.979L321.19 443.17C314.005 451.44 323.365 464.523 333.77 461.09C392.742 441.632 438.897 441.552 492.445 456.401C504.176 459.654 514.028 441.806 504.292 434.499L405.682 360.496ZM876.22 361.979C872.678 357.902 866.587 357.254 862.267 360.496L763.658 434.499C753.921 441.806 763.773 459.654 775.504 456.401C829.052 441.552 875.207 441.632 934.179 461.09C944.584 464.523 953.944 451.44 946.759 443.17L876.22 361.979ZM600.042 690.333C589.385 707.253 576.53 727.665 549.91 739.639C525.39 750.669 492.109 739.95 455.631 728.201C415.525 715.284 371.553 701.122 331.114 713.255C253.894 736.421 594.956 883.144 633.565 883.144C672.174 883.144 1013.24 736.421 936.02 713.255C895.777 701.182 852.214 715.323 812.343 728.266C775.705 740.16 742.184 751.041 717.223 739.639C690.22 727.304 677.379 706.852 666.8 690.004C656.958 674.329 649.074 661.773 633.567 661.773C618.029 661.773 609.994 674.531 600.042 690.333ZM485.846 711.598C527.859 689.259 540.924 631.667 515.027 582.962C489.13 534.257 434.078 512.883 392.065 535.222C350.052 557.561 336.987 615.153 362.884 663.858C388.781 712.563 443.833 733.937 485.846 711.598ZM779.138 711.926C821.152 734.265 876.204 712.891 902.101 664.186C927.997 615.481 914.933 557.889 872.919 535.55C830.906 513.211 775.854 534.585 749.957 583.29C724.06 631.995 737.125 689.587 779.138 711.926Z" fill="black"/>
<path d="M1506.2 672.172V746H1279.14V672.172H1506.2ZM1311.66 319.438V746H1216.16V319.438H1311.66ZM1476.9 491.117V562.602H1279.14V491.117H1476.9ZM1506.49 319.438V393.559H1279.14V319.438H1506.49ZM1727.09 675.102V296H1819.09V746H1736.47L1727.09 675.102ZM1529.63 591.312V585.16C1529.63 561.137 1532.27 539.262 1537.54 519.535C1543.01 499.613 1550.92 482.523 1561.27 468.266C1571.82 453.812 1584.81 442.68 1600.24 434.867C1615.67 427.055 1633.34 423.148 1653.27 423.148C1671.62 423.148 1687.64 427.25 1701.31 435.453C1714.98 443.461 1726.61 454.789 1736.18 469.438C1745.94 483.891 1753.85 500.98 1759.91 520.707C1765.96 540.238 1770.55 561.43 1773.68 584.281V594.828C1770.75 616.703 1766.16 637.113 1759.91 656.059C1753.85 675.004 1745.94 691.703 1736.18 706.156C1726.61 720.414 1714.89 731.645 1701.02 739.848C1687.35 747.855 1671.23 751.859 1652.68 751.859C1632.76 751.859 1615.08 747.855 1599.65 739.848C1584.42 731.84 1571.62 720.609 1561.27 706.156C1550.92 691.703 1543.01 674.711 1537.54 655.18C1532.27 635.648 1529.63 614.359 1529.63 591.312ZM1621.04 585.16V591.312C1621.04 603.812 1621.92 615.434 1623.68 626.176C1625.63 636.918 1628.75 646.391 1633.05 654.594C1637.35 662.797 1643.01 669.242 1650.04 673.93C1657.07 678.422 1665.67 680.668 1675.82 680.668C1689.5 680.668 1700.73 677.543 1709.52 671.293C1718.3 664.848 1724.95 655.961 1729.44 644.633C1733.93 633.305 1736.27 620.121 1736.47 605.082V574.32C1736.47 561.82 1735.2 550.59 1732.66 540.629C1730.12 530.668 1726.31 522.27 1721.23 515.434C1716.35 508.598 1710.2 503.422 1702.78 499.906C1695.36 496.195 1686.57 494.34 1676.41 494.34C1666.45 494.34 1657.95 496.684 1650.92 501.371C1643.89 505.863 1638.13 512.211 1633.64 520.414C1629.34 528.617 1626.12 538.285 1623.97 549.418C1622.02 560.355 1621.04 572.27 1621.04 585.16ZM2066.06 669.535V429.008H2158.05V746H2071.92L2066.06 669.535ZM2075.73 604.789L2100.92 604.203C2100.92 625.492 2098.38 645.121 2093.3 663.09C2088.42 681.059 2081 696.684 2071.04 709.965C2061.27 723.246 2049.07 733.598 2034.42 741.02C2019.96 748.246 2003.07 751.859 1983.73 751.859C1968.11 751.859 1953.75 749.711 1940.67 745.414C1927.78 740.922 1916.64 733.988 1907.27 724.613C1897.89 715.043 1890.67 702.836 1885.59 687.992C1880.51 672.953 1877.97 654.984 1877.97 634.086V429.008H1969.38V634.672C1969.38 642.875 1970.36 649.906 1972.31 655.766C1974.46 661.43 1977.29 666.117 1980.8 669.828C1984.52 673.539 1989.01 676.273 1994.28 678.031C1999.75 679.789 2005.71 680.668 2012.15 680.668C2028.36 680.668 2041.06 677.348 2050.24 670.707C2059.61 663.871 2066.16 654.789 2069.87 643.461C2073.77 631.938 2075.73 619.047 2075.73 604.789ZM2349.95 680.668C2359.71 680.668 2368.21 678.812 2375.43 675.102C2382.66 671.391 2388.23 666.215 2392.13 659.574C2396.23 652.738 2398.29 644.535 2398.29 634.965H2484.42C2484.42 658.012 2478.46 678.324 2466.55 695.902C2454.83 713.48 2439.01 727.25 2419.09 737.211C2399.16 746.977 2376.7 751.859 2351.7 751.859C2327.09 751.859 2305.61 747.855 2287.25 739.848C2268.89 731.645 2253.56 720.219 2241.25 705.57C2228.95 690.922 2219.67 673.93 2213.42 654.594C2207.37 635.062 2204.34 613.969 2204.34 591.312V583.695C2204.34 561.234 2207.37 540.238 2213.42 520.707C2219.67 501.176 2228.95 484.086 2241.25 469.438C2253.56 454.789 2268.79 443.461 2286.96 435.453C2305.32 427.25 2326.8 423.148 2351.41 423.148C2377.39 423.148 2400.34 428.129 2420.26 438.09C2440.38 448.051 2456.1 462.406 2467.43 481.156C2478.75 499.711 2484.42 522.074 2484.42 548.246H2398.29C2398.29 538.09 2396.43 529.008 2392.72 521C2389.2 512.797 2383.73 506.352 2376.31 501.664C2369.09 496.781 2360.1 494.34 2349.36 494.34C2338.23 494.34 2329.05 496.781 2321.82 501.664C2314.79 506.352 2309.42 512.895 2305.71 521.293C2302 529.691 2299.46 539.262 2298.09 550.004C2296.72 560.551 2296.04 571.781 2296.04 583.695V591.312C2296.04 603.422 2296.72 614.945 2298.09 625.883C2299.46 636.625 2302 646.098 2305.71 654.301C2309.61 662.504 2315.08 668.949 2322.11 673.637C2329.14 678.324 2338.42 680.668 2349.95 680.668ZM2621.82 295.707V746H2530.12V295.707H2621.82ZM2823.09 429.008L2685.1 588.383L2612.15 661.625L2575.53 599.809L2634.71 523.344L2712.93 429.008H2823.09ZM2726.41 746L2637.05 600.395L2702.68 549.125L2831.29 746H2726.41Z" fill="white"/>
</g>
<defs>
<clipPath id="clip0_447_21">
<rect width="3074" height="1080" fill="white"/>
</clipPath>
</defs>
</svg>
